<svg width="34" height="34" viewBox="0 0 34 34" fill="none" xmlns="http://www.w3.org/2000/svg">
<circle cx="17" cy="17" r="16.5" fill="white" stroke="#E4E4E4"/>
<g clip-path="url(#clip0_450_17068)">
<path d="M16.6707 14.1266L11.1357 19.2651C10.9545 19.4335 10.9548 19.7061 11.1366 19.8742C11.3185 20.0421 11.6131 20.0417 11.7945 19.8733L17 15.0406L22.2056 19.8735C22.387 20.0418 22.6814 20.0423 22.8632 19.8743C22.9544 19.7901 23 19.6797 23 19.5693C23 19.4592 22.9547 19.3493 22.8642 19.2652L17.3293 14.1266C17.2422 14.0455 17.1236 14 17 14C16.8765 14 16.758 14.0456 16.6707 14.1266Z" fill="#353535"/>
</g>
<defs>
<clipPath id="clip0_450_17068">
<rect width="12" height="12" fill="white" transform="translate(11 23) rotate(-90)"/>
</clipPath>
</defs>
</svg>
