<svg width="36" height="36" viewBox="0 0 36 36" fill="none" xmlns="http://www.w3.org/2000/svg">
<path d="M18.0002 0.857422C27.4685 0.857422 35.1431 8.53313 35.1431 18.0003C35.1431 27.4686 27.4685 35.1431 18.0002 35.1431C8.53195 35.1431 0.857422 27.4685 0.857422 18.0003C0.857422 8.53313 8.53207 0.857422 18.0002 0.857422Z" fill="#C8232C"/>
<path d="M18.5192 8.36328C12.4784 8.36328 9.43457 12.5569 9.43457 16.0529C9.43457 18.17 10.2617 20.0536 12.0381 20.7554C12.3285 20.87 12.5911 20.7596 12.6746 20.4478L12.9339 19.4589C13.0196 19.1513 12.9864 19.0421 12.7517 18.7732C12.2384 18.1892 11.9128 17.4317 11.9128 16.3592C11.9128 13.2489 14.3161 10.4642 18.171 10.4642C21.5857 10.4642 23.4607 12.4839 23.4607 15.1807C23.4607 18.7293 21.8385 21.725 19.43 21.725C18.1014 21.725 17.105 20.6611 17.4243 19.3528C17.8057 17.7949 18.5472 16.1117 18.5472 14.9857C18.5472 13.9796 17.989 13.1374 16.8318 13.1374C15.4721 13.1374 14.3804 14.4992 14.3804 16.3238C14.3804 17.4864 14.7865 18.2717 14.7865 18.2717L13.1504 24.9799C12.6651 26.9696 13.0786 29.4103 13.1129 29.6567C13.1343 29.8024 13.3272 29.8367 13.415 29.7274C13.5403 29.5689 15.1593 27.6328 15.71 25.6978C15.8664 25.1503 16.6047 22.3142 16.6047 22.3142C17.0461 23.1317 18.3372 23.8496 19.7097 23.8496C23.795 23.8496 26.568 20.2421 26.568 15.4142C26.5667 11.764 23.3738 8.36328 18.5192 8.36328Z" fill="white"/>
</svg>
