<svg width="36" height="36" viewBox="0 0 36 36" fill="none" xmlns="http://www.w3.org/2000/svg">
<path d="M18.0003 35.1431C27.468 35.1431 35.1431 27.468 35.1431 18.0003C35.1431 8.53254 27.468 0.857422 18.0003 0.857422C8.53254 0.857422 0.857422 8.53254 0.857422 18.0003C0.857422 27.468 8.53254 35.1431 18.0003 35.1431Z" fill="#E53935"/>
<path d="M24.0651 11.3633H11.9356C10.0308 11.3633 8.47656 12.9176 8.47656 14.8223V21.169C8.47656 23.0738 10.0308 24.628 11.9356 24.628H24.0651C25.9699 24.628 27.5242 23.0738 27.5242 21.169V14.8223C27.5242 12.9252 25.9699 11.3633 24.0651 11.3633ZM18.5337 19.8738L15.5775 21.7023V18.0452V14.388L18.5337 16.2166L21.4899 18.0452L18.5337 19.8738Z" fill="white"/>
</svg>
