<svg width="24" height="24" viewBox="0 0 24 24" fill="none" xmlns="http://www.w3.org/2000/svg">
<circle cx="12" cy="12" r="11.5" transform="rotate(90 12 12)" fill="white" stroke="#E4E4E4"/>
<path d="M13.9156 11.7805L10.4899 8.09047C10.3777 7.96964 10.1959 7.96984 10.0839 8.09109C9.97193 8.21233 9.97222 8.40872 10.0845 8.52964L13.3063 12L10.0844 15.4704C9.97212 15.5913 9.97183 15.7876 10.0838 15.9088C10.14 15.9696 10.2135 16 10.2871 16C10.3605 16 10.4338 15.9698 10.4899 15.9095L13.9156 12.2195C13.9697 12.1615 14 12.0824 14 12C14 11.9176 13.9696 11.8387 13.9156 11.7805Z" fill="#353535"/>
</svg>
