<svg width="28" height="28" viewBox="0 0 28 28" fill="none" xmlns="http://www.w3.org/2000/svg">
<path d="M18.0833 21.526H9.85833C9.53633 21.526 9.275 21.2667 9.275 20.9471C9.275 20.6275 9.53633 20.3682 9.85833 20.3682H17.5V4.73682C17.5 4.41724 17.2375 4.15788 16.9167 4.15788H1.75C1.42917 4.15788 1.16667 4.41724 1.16667 4.73682V19.7892C1.16667 20.1088 1.42917 20.3682 1.75 20.3682H4.14167C4.46367 20.3682 4.725 20.6275 4.725 20.9471C4.725 21.2667 4.46367 21.526 4.14167 21.526H1.75C0.785167 21.526 0 20.7468 0 19.7892V4.73682C0 3.77925 0.785167 3 1.75 3H16.9167C17.8815 3 18.6667 3.77925 18.6667 4.73682V20.9471C18.6667 21.2667 18.4053 21.526 18.0833 21.526Z" fill="#353535"/>
<path d="M21.875 25C19.9453 25 18.375 23.4415 18.375 21.5264C18.375 19.6112 19.9453 18.0527 21.875 18.0527C23.8047 18.0527 25.375 19.6112 25.375 21.5264C25.375 23.4415 23.8047 25 21.875 25ZM21.875 19.2106C20.5882 19.2106 19.5417 20.2492 19.5417 21.5264C19.5417 22.8035 20.5882 23.8421 21.875 23.8421C23.1618 23.8421 24.2083 22.8035 24.2083 21.5264C24.2083 20.2492 23.1618 19.2106 21.875 19.2106Z" fill="#353535"/>
<path d="M7 25C5.07033 25 3.5 23.4415 3.5 21.5264C3.5 19.6112 5.07033 18.0527 7 18.0527C8.92967 18.0527 10.5 19.6112 10.5 21.5264C10.5 23.4415 8.92967 25 7 25ZM7 19.2106C5.71317 19.2106 4.66667 20.2492 4.66667 21.5264C4.66667 22.8035 5.71317 23.8421 7 23.8421C8.28683 23.8421 9.33333 22.8035 9.33333 21.5264C9.33333 20.2492 8.28683 19.2106 7 19.2106Z" fill="#353535"/>
<path d="M4.0838 12.2631C3.96247 12.2631 3.8388 12.2249 3.7338 12.1473C3.47597 11.9551 3.42347 11.5927 3.61597 11.3368L7.11597 6.70527C7.31197 6.44822 7.67713 6.39844 7.93263 6.58949C8.19163 6.78169 8.24297 7.14411 8.05047 7.4L4.55047 12.0315C4.43613 12.1832 4.25997 12.2631 4.0838 12.2631Z" fill="#353535"/>
<path d="M11.0838 15.7374C10.9625 15.7374 10.8388 15.6991 10.7338 15.6216C10.476 15.4294 10.4235 15.0669 10.616 14.8111L14.116 10.1795C14.3108 9.92365 14.676 9.8727 14.9326 10.0638C15.1905 10.256 15.243 10.6184 15.0505 10.8743L11.5505 15.5058C11.4361 15.6575 11.26 15.7374 11.0838 15.7374Z" fill="#353535"/>
<path d="M6.41648 15.7369C6.29865 15.7369 6.18081 15.7022 6.07698 15.6293C5.81448 15.444 5.75498 15.0816 5.94165 14.8222L11.775 6.71707C11.9616 6.45539 12.3268 6.3975 12.5893 6.58276C12.8518 6.76802 12.9113 7.13043 12.7246 7.3898L6.89131 15.4949C6.77815 15.6524 6.59731 15.7369 6.41648 15.7369Z" fill="#353535"/>
<path d="M26.25 21.5267H24.7333C24.4113 21.5267 24.15 21.2673 24.15 20.9477C24.15 20.6282 24.4113 20.3688 24.7333 20.3688H26.25C26.5708 20.3688 26.8333 20.1094 26.8333 19.7899V15.5231C26.8333 15.4038 26.7972 15.288 26.7272 15.1896L23.2038 10.1945C23.0953 10.0405 22.9168 9.94792 22.7255 9.94792H19.25C18.9292 9.94792 18.6667 10.2073 18.6667 10.5269V20.3688H19.0167C19.3387 20.3688 19.6 20.6282 19.6 20.9477C19.6 21.2673 19.3387 21.5267 19.0167 21.5267H18.0833C17.7613 21.5267 17.5 21.2673 17.5 20.9477V10.5269C17.5 9.56929 18.2852 8.79004 19.25 8.79004H22.7255C23.2948 8.79004 23.8315 9.06677 24.1593 9.53108L27.6838 14.5273C27.8903 14.8214 28 15.1665 28 15.5231V19.7899C28 20.7474 27.2148 21.5267 26.25 21.5267Z" fill="#353535"/>
</svg>
