<svg width="28" height="28" viewBox="0 0 28 28" fill="none" xmlns="http://www.w3.org/2000/svg">
<path d="M27.6 7.95218H0.400005C0.332883 7.95219 0.266839 7.93543 0.207958 7.90346C0.149077 7.87149 0.0992525 7.82534 0.0630742 7.76925C0.026896 7.71316 0.00552728 7.64894 0.000936661 7.58251C-0.00365396 7.51608 0.00868111 7.44957 0.0368056 7.38911L2.4368 2.23055C2.46882 2.16172 2.52004 2.10343 2.58441 2.06257C2.64877 2.02171 2.72359 2 2.8 2H25.2C25.2764 2 25.3512 2.02171 25.4156 2.06257C25.48 2.10343 25.5312 2.16172 25.5632 2.23055L27.9632 7.38911C27.9913 7.44957 28.0037 7.51608 27.9991 7.58251C27.9945 7.64894 27.9731 7.71316 27.9369 7.76925C27.9007 7.82534 27.8509 7.87149 27.792 7.90346C27.7332 7.93543 27.6671 7.95219 27.6 7.95218ZM1.02521 7.15856H26.9748L24.944 2.79362H3.056L1.02521 7.15856Z" fill="#484848"/>
<path d="M2.3428 12.7146C1.72168 12.7138 1.12621 12.4687 0.687008 12.033C0.247809 11.5973 0.000741006 11.0066 0 10.3904V7.55599C0 7.45075 0.0421427 7.34982 0.117157 7.2754C0.192172 7.20099 0.293913 7.15918 0.4 7.15918H4.2856C4.39169 7.15918 4.49343 7.20099 4.56844 7.2754C4.64346 7.34982 4.6856 7.45075 4.6856 7.55599V10.3904C4.68486 11.0066 4.43779 11.5973 3.99859 12.033C3.55939 12.4687 2.96392 12.7138 2.3428 12.7146ZM0.8 7.9528V10.3904C0.8 10.7963 0.962544 11.1856 1.25188 11.4727C1.54121 11.7597 1.93362 11.9209 2.3428 11.9209C2.75198 11.9209 3.14439 11.7597 3.43372 11.4727C3.72305 11.1856 3.8856 10.7963 3.8856 10.3904V7.9528H0.8Z" fill="#484848"/>
<path d="M6.22756 12.7146C5.60644 12.7138 5.01097 12.4687 4.57177 12.033C4.13257 11.5973 3.88551 11.0066 3.88477 10.3904V7.55599C3.88477 7.45075 3.92691 7.34982 4.00192 7.2754C4.07694 7.20099 4.17868 7.15918 4.28477 7.15918H8.17036C8.27645 7.15918 8.37819 7.20099 8.45321 7.2754C8.52822 7.34982 8.57036 7.45075 8.57036 7.55599V10.3904C8.56962 11.0066 8.32255 11.5973 7.88336 12.033C7.44416 12.4687 6.84869 12.7138 6.22756 12.7146ZM4.68477 7.9528V10.3904C4.68477 10.7963 4.84731 11.1856 5.13664 11.4727C5.42597 11.7597 5.81839 11.9209 6.22756 11.9209C6.63674 11.9209 7.02916 11.7597 7.31849 11.4727C7.60782 11.1856 7.77036 10.7963 7.77036 10.3904V7.9528H4.68477Z" fill="#484848"/>
<path d="M10.1143 12.7146C9.49316 12.7138 8.89769 12.4687 8.45849 12.033C8.01929 11.5973 7.77223 11.0066 7.77148 10.3904V7.55599C7.77148 7.45075 7.81363 7.34982 7.88864 7.2754C7.96366 7.20099 8.0654 7.15918 8.17148 7.15918H12.0571C12.1632 7.15918 12.2649 7.20099 12.3399 7.2754C12.4149 7.34982 12.4571 7.45075 12.4571 7.55599V10.3904C12.4563 11.0066 12.2093 11.5973 11.7701 12.033C11.3309 12.4687 10.7354 12.7138 10.1143 12.7146ZM8.57148 7.9528V10.3904C8.57148 10.7963 8.73403 11.1856 9.02336 11.4727C9.31269 11.7597 9.70511 11.9209 10.1143 11.9209C10.5235 11.9209 10.9159 11.7597 11.2052 11.4727C11.4945 11.1856 11.6571 10.7963 11.6571 10.3904V7.9528H8.57148Z" fill="#484848"/>
<path d="M14 12.7146C13.3789 12.7138 12.7834 12.4687 12.3442 12.033C11.905 11.5973 11.658 11.0066 11.6572 10.3904V7.55599C11.6572 7.45075 11.6994 7.34982 11.7744 7.2754C11.8494 7.20099 11.9511 7.15918 12.0572 7.15918H15.9428C16.0489 7.15918 16.1506 7.20099 16.2257 7.2754C16.3007 7.34982 16.3428 7.45075 16.3428 7.55599V10.3904C16.3421 11.0066 16.095 11.5973 15.6558 12.033C15.2166 12.4687 14.6211 12.7138 14 12.7146ZM12.4572 7.9528V10.3904C12.4572 10.7963 12.6198 11.1856 12.9091 11.4727C13.1984 11.7597 13.5908 11.9209 14 11.9209C14.4092 11.9209 14.8016 11.7597 15.0909 11.4727C15.3803 11.1856 15.5428 10.7963 15.5428 10.3904V7.9528H12.4572Z" fill="#484848"/>
<path d="M17.8848 12.7146C17.2637 12.7138 16.6682 12.4687 16.229 12.033C15.7898 11.5973 15.5427 11.0066 15.542 10.3904V7.55599C15.542 7.45075 15.5841 7.34982 15.6592 7.2754C15.7342 7.20099 15.8359 7.15918 15.942 7.15918H19.8276C19.9337 7.15918 20.0354 7.20099 20.1104 7.2754C20.1854 7.34982 20.2276 7.45075 20.2276 7.55599V10.3904C20.2268 11.0066 19.9798 11.5973 19.5406 12.033C19.1014 12.4687 18.5059 12.7138 17.8848 12.7146ZM16.342 7.9528V10.3904C16.342 10.7963 16.5045 11.1856 16.7939 11.4727C17.0832 11.7597 17.4756 11.9209 17.8848 11.9209C18.294 11.9209 18.6864 11.7597 18.9757 11.4727C19.265 11.1856 19.4276 10.7963 19.4276 10.3904V7.9528H16.342Z" fill="#484848"/>
<path d="M21.7715 12.7146C21.1504 12.7138 20.5549 12.4687 20.1157 12.033C19.6765 11.5973 19.4295 11.0066 19.4287 10.3904V7.55599C19.4287 7.45075 19.4709 7.34982 19.5459 7.2754C19.6209 7.20099 19.7226 7.15918 19.8287 7.15918H23.7143C23.8204 7.15918 23.9221 7.20099 23.9972 7.2754C24.0722 7.34982 24.1143 7.45075 24.1143 7.55599V10.3904C24.1136 11.0066 23.8665 11.5973 23.4273 12.033C22.9881 12.4687 22.3926 12.7138 21.7715 12.7146ZM20.2283 7.9528V10.3904C20.2283 10.7963 20.3909 11.1856 20.6802 11.4727C20.9695 11.7597 21.3619 11.9209 21.7711 11.9209C22.1803 11.9209 22.5727 11.7597 22.862 11.4727C23.1514 11.1856 23.3139 10.7963 23.3139 10.3904V7.9528H20.2283Z" fill="#484848"/>
<path d="M25.6573 12.7146C25.0361 12.7138 24.4407 12.4687 24.0015 12.033C23.5623 11.5973 23.3152 11.0066 23.3145 10.3904V7.55599C23.3145 7.45075 23.3566 7.34982 23.4316 7.2754C23.5066 7.20099 23.6084 7.15918 23.7145 7.15918H27.6001C27.7061 7.15918 27.8079 7.20099 27.8829 7.2754C27.9579 7.34982 28.0001 7.45075 28.0001 7.55599V10.3904C27.9993 11.0066 27.7522 11.5973 27.313 12.033C26.8738 12.4687 26.2784 12.7138 25.6573 12.7146ZM24.1145 7.9528V10.3904C24.1145 10.7963 24.277 11.1856 24.5663 11.4727C24.8557 11.7597 25.2481 11.9209 25.6573 11.9209C26.0664 11.9209 26.4588 11.7597 26.7482 11.4727C27.0375 11.1856 27.2001 10.7963 27.2001 10.3904V7.9528H24.1145Z" fill="#484848"/>
<path d="M26.4001 26.9998H1.56406C1.45798 26.9998 1.35623 26.958 1.28122 26.8835C1.20621 26.8091 1.16406 26.7082 1.16406 26.603V11.9209H1.96406V26.2061H26.0001V11.9209H26.8001V26.603C26.8001 26.7082 26.7579 26.8091 26.6829 26.8835C26.6079 26.958 26.5061 26.9998 26.4001 26.9998Z" fill="#484848"/>
<path d="M23.2 26.9981H16.4C16.2939 26.9981 16.1922 26.9563 16.1172 26.8819C16.0421 26.8075 16 26.7065 16 26.6013V15.4906C16 15.3853 16.0421 15.2844 16.1172 15.21C16.1922 15.1356 16.2939 15.0938 16.4 15.0938H23.2C23.3061 15.0938 23.4078 15.1356 23.4828 15.21C23.5578 15.2844 23.6 15.3853 23.6 15.4906V26.6013C23.6 26.7065 23.5578 26.8075 23.4828 26.8819C23.4078 26.9563 23.3061 26.9981 23.2 26.9981ZM16.8 26.2045H22.8V15.8874H16.8V26.2045Z" fill="#484848"/>
<path d="M13.9996 23.6254H3.99961C3.89352 23.6254 3.79178 23.5836 3.71677 23.5092C3.64175 23.4347 3.59961 23.3338 3.59961 23.2286V15.2923C3.59961 15.1871 3.64175 15.0861 3.71677 15.0117C3.79178 14.9373 3.89352 14.8955 3.99961 14.8955H13.9996C14.1057 14.8955 14.2074 14.9373 14.2825 15.0117C14.3575 15.0861 14.3996 15.1871 14.3996 15.2923V23.2286C14.3996 23.3338 14.3575 23.4347 14.2825 23.5092C14.2074 23.5836 14.1057 23.6254 13.9996 23.6254ZM4.39961 22.8318H13.5996V15.6891H4.39961V22.8318Z" fill="#484848"/>
</svg>
