<svg width="28" height="28" viewBox="0 0 28 28" fill="none" xmlns="http://www.w3.org/2000/svg">
<path d="M2.12397 20.0347C1.95388 19.7017 1.7965 19.3578 1.65576 19.0126C1.63878 18.9702 1.61359 18.9316 1.58163 18.899C1.54967 18.8664 1.51158 18.8404 1.46954 18.8225C1.4275 18.8047 1.38235 18.7953 1.33667 18.7949C1.29099 18.7946 1.24569 18.8032 1.20338 18.8204C1.16106 18.8376 1.12257 18.863 1.0901 18.8951C1.05764 18.9272 1.03184 18.9654 1.0142 19.0075C0.996559 19.0497 0.987419 19.0948 0.987306 19.1405C0.987193 19.1861 0.996109 19.2313 1.01354 19.2735C1.16144 19.6373 1.32737 19.9992 1.50647 20.3497C1.52717 20.3903 1.55565 20.4263 1.59029 20.4558C1.62493 20.4853 1.66504 20.5077 1.70835 20.5218C1.75165 20.5358 1.7973 20.5412 1.84268 20.5376C1.88806 20.534 1.93228 20.5215 1.97283 20.5008C2.01337 20.4801 2.04945 20.4516 2.07898 20.417C2.10852 20.3824 2.13095 20.3423 2.14498 20.299C2.15902 20.2558 2.16438 20.2101 2.16078 20.1648C2.15717 20.1194 2.14466 20.0752 2.12397 20.0347Z" fill="#353535"/>
<path d="M1.27707 17.9545C1.16568 17.5972 1.06908 17.2314 0.988888 16.8672C0.968152 16.7785 0.913311 16.7016 0.836232 16.653C0.759153 16.6044 0.666036 16.5881 0.577031 16.6077C0.488026 16.6272 0.410291 16.6809 0.360648 16.7573C0.311004 16.8337 0.293446 16.9265 0.311771 17.0157C0.39589 17.3991 0.497805 17.784 0.61474 18.1602C0.642045 18.248 0.703123 18.3214 0.784535 18.3641C0.865948 18.4069 0.961028 18.4156 1.04886 18.3883C1.13669 18.361 1.21007 18.3 1.25287 18.2186C1.29567 18.1373 1.30437 18.0422 1.27707 17.9545Z" fill="#353535"/>
<path d="M0.495177 16.1482C0.586313 16.1362 0.668942 16.0885 0.724892 16.0156C0.780841 15.9427 0.805528 15.8506 0.793524 15.7595C0.744531 15.39 0.710791 15.0136 0.692765 14.6388C0.691182 14.5931 0.680478 14.5483 0.661282 14.5069C0.642087 14.4655 0.614789 14.4283 0.580998 14.3976C0.547206 14.3669 0.507605 14.3432 0.464527 14.3281C0.42145 14.3129 0.375768 14.3065 0.330173 14.3092C0.284694 14.3114 0.240087 14.3225 0.198899 14.3419C0.157712 14.3613 0.120751 14.3886 0.0901268 14.4222C0.059503 14.4559 0.0358166 14.4953 0.0204205 14.5381C0.00502432 14.5809 -0.00177999 14.6263 0.000396201 14.6718C0.0191151 15.066 0.0547042 15.4623 0.106008 15.8496C0.111959 15.8947 0.126748 15.9382 0.149529 15.9776C0.17231 16.017 0.202637 16.0516 0.238778 16.0792C0.274918 16.1069 0.316164 16.1272 0.360158 16.139C0.404152 16.1507 0.450032 16.1537 0.495177 16.1477V16.1482Z" fill="#353535"/>
<path d="M6.55499 25.0378C6.24509 24.8285 5.94027 24.6041 5.64885 24.3694C5.61338 24.3409 5.57263 24.3197 5.52893 24.3069C5.48524 24.2941 5.43946 24.2901 5.3942 24.295C5.34894 24.2999 5.30509 24.3137 5.26516 24.3355C5.22523 24.3574 5.18999 24.3869 5.16147 24.4223C5.13294 24.4578 5.11168 24.4985 5.0989 24.5421C5.08612 24.5858 5.08207 24.6316 5.08699 24.6768C5.0919 24.722 5.10568 24.7658 5.12754 24.8057C5.1494 24.8456 5.17891 24.8809 5.21439 24.9094C5.52082 25.1556 5.84113 25.3923 6.16744 25.6119C6.24352 25.6633 6.33692 25.6825 6.42714 25.6652C6.51736 25.6479 6.597 25.5955 6.64858 25.5195C6.67417 25.4818 6.69204 25.4393 6.70119 25.3947C6.71033 25.35 6.71056 25.304 6.70187 25.2592C6.69317 25.2145 6.67572 25.1719 6.65052 25.1339C6.62531 25.0959 6.59285 25.0632 6.55499 25.0378Z" fill="#353535"/>
<path d="M2.67691 21.0152C2.65335 20.9756 2.62213 20.9411 2.58506 20.9136C2.54798 20.8862 2.50581 20.8665 2.46101 20.8556C2.4162 20.8446 2.36967 20.8428 2.32413 20.8501C2.27859 20.8573 2.23497 20.8736 2.19581 20.898C2.15664 20.9223 2.12274 20.9542 2.09607 20.9918C2.0694 21.0294 2.05051 21.0719 2.04049 21.1169C2.03048 21.1619 2.02955 21.2084 2.03776 21.2538C2.04597 21.2991 2.06315 21.3424 2.0883 21.381C2.29629 21.7143 2.51999 22.0431 2.75525 22.3586C2.78246 22.3951 2.81659 22.4259 2.85569 22.4492C2.8948 22.4725 2.93812 22.4878 2.98317 22.4944C3.02823 22.501 3.07414 22.4986 3.11828 22.4875C3.16242 22.4763 3.20393 22.4566 3.24044 22.4294C3.27695 22.4022 3.30774 22.3681 3.33106 22.329C3.35438 22.2899 3.36976 22.2466 3.37634 22.2016C3.38292 22.1566 3.38056 22.1107 3.36939 22.0666C3.35823 22.0225 3.33848 21.981 3.31127 21.9445C3.08803 21.6434 2.87426 21.3309 2.67691 21.0152Z" fill="#353535"/>
<path d="M4.02122 22.8179C3.96027 22.7491 3.87447 22.7074 3.7827 22.7018C3.69093 22.6962 3.6007 22.7273 3.53187 22.7883C3.46304 22.8492 3.42125 22.9349 3.41568 23.0266C3.41011 23.1183 3.44122 23.2085 3.50218 23.2773C3.76355 23.572 4.04017 23.8586 4.32419 24.1295C4.35683 24.1622 4.39572 24.1882 4.43855 24.2057C4.48139 24.2232 4.5273 24.232 4.57359 24.2315C4.61987 24.2311 4.66559 24.2213 4.70805 24.2029C4.7505 24.1845 4.78884 24.1577 4.82079 24.1243C4.85274 24.0908 4.87766 24.0513 4.89407 24.008C4.91049 23.9648 4.91807 23.9187 4.91637 23.8724C4.91468 23.8262 4.90373 23.7808 4.88418 23.7389C4.86464 23.6969 4.83688 23.6593 4.80256 23.6283C4.53241 23.3701 4.26965 23.0974 4.02122 22.8179Z" fill="#353535"/>
<path d="M13.9927 0C11.746 0.00219876 9.53266 0.543327 7.53869 1.5779C5.54472 2.61248 3.82839 4.11028 2.53397 5.9454C2.48102 6.02052 2.46009 6.11359 2.4758 6.20413C2.49151 6.29467 2.54257 6.37527 2.61774 6.42819C2.69292 6.48111 2.78605 6.50202 2.87665 6.48632C2.96725 6.47062 3.0479 6.41959 3.10085 6.34447C4.55447 4.28137 6.56526 2.67396 8.89857 1.70984C11.2319 0.74572 13.7915 0.464655 16.2786 0.899447C18.7657 1.33424 21.0778 2.46695 22.945 4.1654C24.8122 5.86384 26.1576 8.05796 26.824 10.4917C27.4904 12.9254 27.4505 15.4983 26.7088 17.9102C25.9672 20.3221 24.5544 22.4735 22.6353 24.1132C20.7163 25.753 18.3701 26.8134 15.8707 27.1709C13.3713 27.5284 10.8217 27.1681 8.51941 26.1321C8.1797 25.9788 7.84137 25.8088 7.51413 25.6259C7.47437 25.6033 7.43053 25.5888 7.38514 25.5833C7.33974 25.5777 7.2937 25.5812 7.24965 25.5935C7.2056 25.6058 7.16442 25.6266 7.12849 25.6549C7.09255 25.6832 7.06257 25.7183 7.04027 25.7582C7.01796 25.7981 7.00378 25.842 6.99854 25.8874C6.99329 25.9328 6.99709 25.9788 7.00971 26.0227C7.02233 26.0666 7.04352 26.1076 7.07207 26.1433C7.10062 26.179 7.13595 26.2087 7.17604 26.2307C7.5206 26.4229 7.87649 26.6023 8.23423 26.7635C10.1392 27.6216 12.2122 28.0429 14.3013 27.9966C16.3903 27.9503 18.4425 27.4376 20.3076 26.496C22.1727 25.5544 23.8034 24.2078 25.0802 22.5549C26.3571 20.9019 27.2478 18.9845 27.687 16.943C28.1263 14.9015 28.103 12.7876 27.6189 10.7563C27.1347 8.72496 26.202 6.82757 24.889 5.20312C23.5761 3.57867 21.9161 2.26831 20.0307 1.36802C18.1453 0.467725 16.0823 0.000305868 13.9927 0Z" fill="#353535"/>
<path d="M2.63798 7.32294C2.40916 7.32252 2.18793 7.24087 2.01375 7.09257C1.83957 6.94427 1.72378 6.73896 1.68702 6.51325L1.39861 4.72368C1.38655 4.63414 1.40997 4.54345 1.46387 4.47092C1.51777 4.3984 1.59788 4.34979 1.68714 4.33545C1.77639 4.32111 1.86772 4.34218 1.94165 4.39417C2.01558 4.44616 2.06626 4.52495 2.08289 4.61375L2.37199 6.40309C2.38379 6.47369 2.42298 6.53677 2.48104 6.57867C2.53911 6.62057 2.61136 6.63789 2.68212 6.62688L4.47267 6.33866C4.56226 6.32661 4.65302 6.35001 4.72559 6.40388C4.79817 6.45774 4.84681 6.53781 4.86116 6.627C4.87551 6.71619 4.85442 6.80746 4.8024 6.88134C4.75038 6.95522 4.67153 7.00587 4.58267 7.02248L2.79213 7.3107C2.74116 7.31891 2.68961 7.32301 2.63798 7.32294Z" fill="#353535"/>
<path d="M22.9455 8.08086L14.5227 3.64514C14.3629 3.56073 14.1849 3.5166 14.0042 3.5166C13.8235 3.5166 13.6455 3.56073 13.4857 3.64514L5.06244 8.08086C4.88309 8.17495 4.73295 8.31631 4.62829 8.48962C4.52363 8.66293 4.46846 8.86156 4.46875 9.06399V18.931C4.46841 19.1335 4.52357 19.3322 4.62823 19.5055C4.73289 19.6789 4.88306 19.8203 5.06244 19.9144L13.4857 24.3501C13.6456 24.4343 13.8235 24.4783 14.0042 24.4783C14.1849 24.4783 14.3628 24.4343 14.5227 24.3501L22.9455 19.9144C23.1249 19.8203 23.2751 19.6789 23.3798 19.5056C23.4845 19.3322 23.5397 19.1335 23.5394 18.931V9.06399C23.5397 8.86154 23.4845 8.66289 23.3798 8.48957C23.2751 8.31626 23.1249 8.17491 22.9455 8.08086ZM10.7181 10.9228C10.5342 11.0151 10.3797 11.1568 10.2719 11.332C10.1642 11.5072 10.1074 11.7089 10.108 11.9145V15.8729C10.1088 15.8803 10.1069 15.8878 10.1027 15.8939C10.0984 15.9001 10.0921 15.9045 10.0849 15.9064C10.0784 15.91 10.0708 15.9112 10.0635 15.9096C10.0562 15.908 10.0498 15.9038 10.0454 15.8978L9.28784 15.1075C9.20128 15.0181 9.09339 14.9521 8.9743 14.9157C8.85521 14.8793 8.72883 14.8738 8.60702 14.8997L8.1127 15.0062C8.10744 15.0072 8.10199 15.0072 8.09677 15.0059C8.09154 15.0046 8.08666 15.0022 8.08248 14.9988C8.0783 14.9955 8.07492 14.9912 8.0726 14.9863C8.07027 14.9815 8.06905 14.9762 8.06903 14.9708V10.533C8.0687 10.4556 8.09004 10.3796 8.13062 10.3136C8.17121 10.2476 8.22944 10.1943 8.29874 10.1596L17.025 5.74603L18.9496 6.75964L10.7181 10.9228ZM13.8088 4.25783C13.8691 4.22613 13.9361 4.20957 14.0042 4.20957C14.0723 4.20957 14.1393 4.22613 14.1996 4.25783L16.273 5.34973L7.98629 9.54135C7.90225 9.58416 7.82404 9.63756 7.75358 9.70023L5.57086 8.5961L13.8088 4.25783ZM13.6574 23.657L5.38575 19.3012C5.31827 19.2659 5.26175 19.2128 5.22231 19.1477C5.18288 19.0825 5.16204 19.0078 5.16205 18.9317V9.16583L7.40369 10.2993C7.38631 10.376 7.37717 10.4544 7.37643 10.533V14.9701C7.37645 15.0789 7.4008 15.1862 7.44771 15.2843C7.49462 15.3824 7.56289 15.4688 7.64753 15.5371C7.73216 15.6055 7.83102 15.654 7.93686 15.6792C8.0427 15.7044 8.15284 15.7056 8.25922 15.6828L8.75354 15.5766C8.7596 15.5749 8.76602 15.575 8.77203 15.5769C8.77804 15.5787 8.78341 15.5822 8.78751 15.587L9.54551 16.3773C9.64622 16.4823 9.77608 16.5548 9.91839 16.5855C10.0607 16.6162 10.2089 16.6036 10.344 16.5494C10.4791 16.4952 10.5949 16.4018 10.6764 16.2813C10.7579 16.1607 10.8015 16.0186 10.8015 15.8731V12.0182L13.5024 13.384C13.5524 13.409 13.6043 13.43 13.6577 13.4468L13.6574 23.657ZM13.8153 12.766L11.2124 11.4496L19.7016 7.1557L22.4375 8.59633L14.1936 12.7662C14.1349 12.7957 14.0701 12.8111 14.0044 12.8111C13.9387 12.8111 13.874 12.7957 13.8153 12.7662V12.766ZM22.8461 18.9308C22.8461 19.0069 22.8252 19.0816 22.7858 19.1467C22.7464 19.2118 22.6899 19.2649 22.6224 19.3003L14.3507 23.6575V13.4471C14.4043 13.4301 14.4566 13.409 14.507 13.384L22.8461 9.16606V18.9308Z" fill="#353535"/>
</svg>
