<svg width="20" height="20" viewBox="0 0 20 20" fill="none" xmlns="http://www.w3.org/2000/svg">
<g clip-path="url(#clip0_450_16995)">
<path d="M19.0214 3.96791H17.754V1.28342C17.754 0.572192 17.1765 0 16.4706 0H14.2781C14.1818 0 14.0856 0.0106951 13.9947 0.0320855C13.4064 0.160428 12.9893 0.684492 12.9893 1.28877V2.12834C12.7326 2.03209 12.4652 1.94118 12.1979 1.87166C7.70053 0.663102 3.08021 3.33155 1.87166 7.82353C1.67914 8.53476 1.58289 9.26203 1.58289 10C1.58289 11.1283 1.80749 12.246 2.25134 13.2781V14.385H0.97861C0.438503 14.385 0 14.8235 0 15.3636C0 15.6257 0.101604 15.8717 0.28877 16.0588L3.94118 19.7112C4.12299 19.8984 4.37433 20 4.63636 20C4.89305 20 5.14438 19.8984 5.3262 19.7112L7.12834 17.9144C11.5027 19.5027 16.3369 17.2406 17.9198 12.8663C18.2513 11.9465 18.4225 10.9786 18.4225 10C18.4225 9.1016 18.2781 8.2139 17.9947 7.35829L19.7166 5.63636C20.0963 5.25134 20.0963 4.63636 19.7166 4.25134C19.5294 4.07487 19.2834 3.96791 19.0214 3.96791ZM3.3369 6.20321C5.26203 2.82888 9.40107 1.42781 12.984 2.93048V3.96791H12.0642C11.9305 3.91979 11.7968 3.87701 11.6631 3.83957C8.86096 3.08556 5.8984 4.31551 4.46524 6.83957C3.84492 7.91979 3.55615 9.17112 3.64171 10.4171C3.14439 10.385 2.64171 10.6471 2.40642 11.0856C2.16043 9.40107 2.49198 7.68449 3.3369 6.20321ZM9.26203 15.4011C9.26738 15.2032 9.2139 15.0053 9.10695 14.8396C8.93048 14.5561 8.61497 14.385 8.28342 14.3904H7.01069V11.7059C7.01069 10.9947 6.43316 10.4225 5.72727 10.4225H4.38503C4.37433 10.2834 4.36898 10.1444 4.36898 10.0053C4.37433 7.45989 6.08021 5.23529 8.53476 4.57219C9.29947 4.36898 10.0963 4.3262 10.877 4.4492C10.6417 4.83422 10.7059 5.3262 11.0214 5.64706L14.6738 9.29947C14.8556 9.48663 15.1069 9.58823 15.369 9.58823H15.3797C15.4278 9.58289 15.4813 9.57754 15.5294 9.57219C15.5508 9.56684 15.5668 9.56684 15.5882 9.5615C15.5989 9.5615 15.6043 9.5615 15.615 9.55615C15.6257 9.70588 15.631 9.85562 15.631 10.0053C15.631 13.1123 13.107 15.631 10 15.631C9.74866 15.631 9.49732 15.615 9.24599 15.5775C9.25134 15.5187 9.26203 15.4599 9.26203 15.4011ZM4.79144 19.1872C4.74866 19.2299 4.69519 19.2513 4.63102 19.2513C4.57219 19.246 4.51337 19.2246 4.46524 19.1818L0.812834 15.5294C0.721925 15.4385 0.721925 15.2941 0.812834 15.2032C0.855615 15.1604 0.914439 15.1337 0.97861 15.1337H2.62032C2.82888 15.1337 2.99465 14.9679 2.99465 14.7594V11.7005C2.99465 11.4492 3.17112 11.2299 3.41711 11.1765C3.45454 11.1658 3.49198 11.1658 3.53476 11.1658H5.72727C6.02139 11.1658 6.26203 11.4064 6.26203 11.7005V14.7594C6.26203 14.9679 6.42781 15.1337 6.63636 15.1337H8.28877C8.36898 15.1283 8.4385 15.1711 8.48128 15.2353C8.52406 15.3048 8.52941 15.385 8.49732 15.4599C8.48663 15.4813 8.47059 15.508 8.45455 15.5241L8.40107 15.5775L4.79144 19.1872ZM16.6631 13.8021C14.877 16.9305 11.1551 18.4011 7.71123 17.3262L8.78075 16.2567C9.18182 16.3369 9.58823 16.3743 10 16.3743C13.5134 16.3797 16.369 13.5348 16.3743 10.016C16.3743 9.68984 16.3529 9.36898 16.2995 9.04813L17.3904 7.95722C17.9412 9.92513 17.6738 12.0267 16.6631 13.8021ZM19.2299 5.04278C19.2192 5.06952 19.2032 5.09091 19.1818 5.10695L17.2995 6.9893C17.2995 6.9893 17.2941 6.98931 17.2941 6.99465L15.5241 8.76471C15.4813 8.80749 15.4278 8.82888 15.3636 8.82888C15.3048 8.82888 15.246 8.80214 15.2032 8.75936L11.5508 5.1123C11.4599 5.02139 11.4599 4.87701 11.5508 4.7861C11.5936 4.74332 11.6524 4.71658 11.7166 4.71658H13.3583C13.5668 4.71658 13.7326 4.5508 13.7326 4.34225V1.28342C13.7326 1.03209 13.9091 0.812834 14.1551 0.759358C14.1925 0.748663 14.2299 0.748663 14.2727 0.748663H16.4652C16.7594 0.748663 17 0.989305 17 1.28342V4.34225C17 4.5508 17.1658 4.71658 17.3743 4.71658H19.0214C19.1016 4.71123 19.1711 4.75401 19.2139 4.81818C19.2567 4.8877 19.262 4.97326 19.2299 5.04278Z" fill="#56C456"/>
<path d="M9.62501 12.8125C9.62501 13.0211 9.79079 13.1868 9.99934 13.1868C10.2079 13.1868 10.3737 13.0211 10.3737 12.8125V12.3473C11.1223 12.2884 11.6838 11.6307 11.6197 10.8767C11.5608 10.1708 10.9726 9.62533 10.2614 9.62533H9.73731C9.39507 9.61999 9.12768 9.33656 9.13303 8.99967C9.13838 8.66812 9.40576 8.40074 9.73731 8.39539H10.9886C11.1972 8.39539 11.363 8.22961 11.363 8.02106C11.363 7.8125 11.1972 7.64672 10.9886 7.64672H10.3737V7.18683C10.3737 6.97828 10.2079 6.8125 9.99934 6.8125C9.79079 6.8125 9.62501 6.97828 9.62501 7.18683V7.65207C8.87635 7.7109 8.31485 8.36865 8.37902 9.12266C8.43784 9.82854 9.02608 10.374 9.73731 10.374H10.2614C10.6036 10.374 10.8763 10.6521 10.8763 10.989C10.8763 11.3259 10.5983 11.6039 10.2614 11.6039H9.01004C8.80148 11.6039 8.63571 11.7697 8.63571 11.9783C8.63571 12.1868 8.80148 12.3526 9.01004 12.3526H9.62501V12.8125Z" fill="#56C456"/>
</g>
<defs>
<clipPath id="clip0_450_16995">
<rect width="20" height="20" fill="white"/>
</clipPath>
</defs>
</svg>
