<svg width="20" height="12" viewBox="0 0 20 12" fill="none" xmlns="http://www.w3.org/2000/svg">
<g clip-path="url(#clip0_450_14824)">
<path fill-rule="evenodd" clip-rule="evenodd" d="M18.6667 8.00002V9.33335C18.6646 10.0399 18.3829 10.717 17.8833 11.2166C17.3837 11.7163 16.7066 11.9979 16 12H2.66668C1.95944 12 1.28116 11.7191 0.781065 11.219C0.280968 10.7189 1.645e-05 10.0406 1.645e-05 9.33335V2.66668C-0.00121692 2.31615 0.0669165 1.96883 0.200492 1.64474C0.334068 1.32064 0.530446 1.02618 0.778315 0.778315C1.02618 0.530446 1.32064 0.334068 1.64474 0.200492C1.96883 0.0669165 2.31615 -0.00121692 2.66668 1.645e-05H16C16.7073 1.645e-05 17.3855 0.280968 17.8856 0.781065C18.3857 1.28116 18.6667 1.95944 18.6667 2.66668V4.00002H20V8.00002H18.6667ZM16 8.00002V2.66668H2.66668V9.33335H16V8.00002ZM6.66668 8.00002H4.00002V4.00002H6.66668V8.00002ZM10.6667 8.00002H8.00002V4.00002H10.6667V8.00002Z" fill="#E2E639"/>
</g>
<defs>
<clipPath id="clip0_450_14824">
<rect width="20" height="12" fill="white"/>
</clipPath>
</defs>
</svg>
