<svg width="20" height="20" viewBox="0 0 20 20" fill="none" xmlns="http://www.w3.org/2000/svg">
<g clip-path="url(#clip0_450_16975)">
<path d="M19.7148 11.9654L8.8819 8.35477C8.73273 8.30396 8.56773 8.34395 8.45524 8.45559C8.34356 8.56727 8.30442 8.73226 8.35442 8.88225L11.9651 19.7151C12.0226 19.8843 12.1818 19.9993 12.3609 19.9993C12.3617 19.9993 12.3634 19.9993 12.3642 19.9993C12.545 19.9976 12.7042 19.8801 12.7584 19.7076L14.42 14.4203L19.7081 12.7587C19.8806 12.7045 19.9989 12.5454 20.0006 12.3646C20.0022 12.1838 19.8864 12.0229 19.7148 11.9654ZM13.9633 13.6904C13.8333 13.7312 13.7317 13.8329 13.6908 13.9629L12.3501 18.2302L9.40852 9.40887L18.2306 12.3496L13.9633 13.6904Z" fill="white"/>
<path d="M8.33296 15.8336C4.19732 15.8336 0.833285 12.4688 0.833285 8.33394C0.833285 4.19912 4.19732 0.834261 8.33296 0.834261C12.4686 0.834261 15.8326 4.19912 15.8326 8.33394C15.8326 8.56393 16.0193 8.7506 16.2493 8.7506C16.4793 8.7506 16.666 8.56393 16.666 8.33394C16.666 3.73914 12.9278 0.000976562 8.333 0.000976562C3.7382 0.000976562 0 3.73914 0 8.33394C0 12.9287 3.73816 16.6669 8.33296 16.6669C8.56295 16.6669 8.74962 16.4802 8.74962 16.2502C8.74962 16.0203 8.56295 15.8336 8.33296 15.8336Z" fill="white"/>
</g>
<defs>
<clipPath id="clip0_450_16975">
<rect width="20" height="20" fill="white"/>
</clipPath>
</defs>
</svg>
