<svg width="48" height="48" viewBox="0 0 48 48" fill="none" xmlns="http://www.w3.org/2000/svg">
<rect x="0.5" y="0.5" width="47" height="47" rx="9.5" fill="white" stroke="#E4E4E4"/>
<g clip-path="url(#clip0_928_705)">
<path d="M17.211 24.5488L25.7752 33.7738C26.0558 34.0759 26.5101 34.0754 26.7903 33.7723C27.0702 33.4692 27.0694 32.9782 26.7888 32.6759L18.7343 24L26.7891 15.3241C27.0697 15.0217 27.0704 14.5311 26.7905 14.2279C26.6501 14.076 26.4662 14 26.2822 14C26.0987 14 25.9154 14.0755 25.7753 14.2264L17.211 23.4511C17.0758 23.5964 17 23.794 17 24C17 24.2059 17.0761 24.4033 17.211 24.5488Z" fill="#353535"/>
</g>
<defs>
<clipPath id="clip0_928_705">
<rect width="20" height="20" fill="white" transform="translate(32 34) rotate(180)"/>
</clipPath>
</defs>
</svg>
