<svg width="20" height="20" viewBox="0 0 20 20" fill="none" xmlns="http://www.w3.org/2000/svg">
<g clip-path="url(#clip0_450_16966)">
<path d="M17.1 2.87417C15.2 1.0375 12.7 0 10.0375 0C2.39583 0 -2.4025 8.27917 1.41333 14.865L0 20L5.27917 18.6233C7.57917 19.8658 9.46333 19.7558 10.0425 19.8292C18.9033 19.8292 23.3142 9.10917 17.0875 2.90667L17.1 2.87417Z" fill="#ECEFF1"/>
<path d="M10.0552 18.1255L10.0502 18.1247H10.0369C7.38525 18.1247 5.69108 16.8689 5.52441 16.7964L2.39941 17.6089L3.23691 14.5714L3.03775 14.2589C2.21275 12.9455 1.77441 11.433 1.77441 9.87552C1.77441 2.54802 10.7286 -1.11615 15.9102 4.06302C21.0794 9.18802 17.4502 18.1255 10.0552 18.1255Z" fill="#4CAF50"/>
<path d="M14.5893 11.9228L14.5818 11.9853C14.3309 11.8603 13.1093 11.2628 12.8818 11.1803C12.3709 10.9911 12.5151 11.1503 11.5343 12.2736C11.3884 12.4361 11.2434 12.4486 10.9959 12.3361C10.7459 12.2111 9.94345 11.9486 8.99345 11.0986C8.25345 10.4361 7.75678 9.62364 7.61011 9.37364C7.36595 8.95197 7.87678 8.89197 8.34178 8.01197C8.42511 7.83697 8.38261 7.69947 8.32095 7.5753C8.25845 7.4503 7.76095 6.2253 7.55261 5.73697C7.35261 5.2503 7.14678 5.31197 6.99261 5.31197C6.51261 5.2703 6.16178 5.27697 5.85261 5.59864C4.50761 7.07697 4.84678 8.60197 5.99761 10.2236C8.25928 13.1836 9.46428 13.7286 11.6676 14.4853C12.2626 14.6745 12.8051 14.6478 13.2343 14.5861C13.7126 14.5103 14.7068 13.9853 14.9143 13.3978C15.1268 12.8103 15.1268 12.3228 15.0643 12.2103C15.0026 12.0978 14.8393 12.0353 14.5893 11.9228Z" fill="#FAFAFA"/>
</g>
<defs>
<clipPath id="clip0_450_16966">
<rect width="20" height="20" fill="white"/>
</clipPath>
</defs>
</svg>
